# xmcd
#
# Track frame offsets:
#	182
#	13412
#	29167
#	43767
#	52905
#	75405
#	90412
#	105642
#	124030
#	141545
#	159175
#	195692
#	211427
#	226070
#	247532
#	263452
#	282742
#	297997
#	318505
#	328692
#
# Disc length: 4586 seconds
#
# Revision: 6
# Processed by: cddbd v1.5.2PL0 Copyright (c) Steve Scherf et al.
# Submitted via: EZCDAudioConverter 2.1.7.1
#
DISCID=1911e814
DTITLE=John Cale - Seducing Down The Door 1/2
DYEAR=1994
DGENRE=
TTITLE0=John Cale and Terry Riley - The Protege
TTITLE1=John Cale - Big White Cloud
TTITLE2=John Cale - Amsterdam
TTITLE3=John Cale - Days Of Steam
TTITLE4=John Cale - Temper
TTITLE5=John Cale - Dixieland And Dixie
TTITLE6=John Cale - Child's Christmas In Wales
TTITLE7=John Cale - Paris 1919
TTITLE8=John Cale - Andalucia
TTITLE9=John Cale - Fear Is A Man's Best Friend
TTITLE10=John Cale - Gun
TTITLE11=John Cale - I Keep A Close Watch
TTITLE12=John Cale - Heartbreak Hotel
TTITLE13=John Cale - Dirtyass Rock N' Roll
TTITLE14=John Cale - Guts
TTITLE15=John Cale - The Jeweller
TTITLE16=John Cale - Pablo Picasso
TTITLE17=John Cale - Leaving It Up To You
TTITLE18=John Cale - Coral Moon
TTITLE19=John Cale - Memphis
EXTD=
EXTT0=
EXTT1=
EXTT2=
EXTT3=
EXTT4=
EXTT5=
EXTT6=
EXTT7=
EXTT8=
EXTT9=
EXTT10=
EXTT11=
EXTT12=
EXTT13=
EXTT14=
EXTT15=
EXTT16=
EXTT17=
EXTT18=
EXTT19=
PLAYORDER=
